<svg width="560" height="560" viewBox="0 0 560 560" fill="none" xmlns="http://www.w3.org/2000/svg">
<rect width="560" height="560" fill="url(#paint0_linear_163_48)"/>
<path d="M377.225 362.45C387.973 370.939 394.59 383.443 397.575 396.676C398.893 412.805 397.676 428.28 387.372 441.438C384.611 444.682 382.07 447.485 378.492 450.474C378.492 449.661 378.492 451.263 378.492 450.474C375.888 451.828 370.893 455.562 368.28 456.9C367.553 457.279 366.827 457.658 366.079 458.049C357.663 462.333 349.947 464.068 340.55 463.998C339.602 463.991 338.653 463.985 337.676 463.978C325.175 463.719 316.003 459.972 305.74 452.865C304.903 452.292 304.067 451.718 303.205 451.128C293.202 443.373 286.328 430.636 284.272 418.195C283.949 414.873 283.872 411.594 283.899 408.258C283.905 407.372 283.911 406.487 283.917 405.575C284.222 391.131 289.12 378.375 298.84 367.61C322.027 345.639 351.702 344.345 377.225 362.45ZM327.207 354.833C326.642 355.869 326.076 356.905 325.493 357.972C321.424 364.404 313.563 368.161 306.341 369.894C303.727 370.226 303.727 370.226 299.776 370.375C299.776 371.164 299.776 371.953 299.776 372.766C300.563 373.161 301.351 373.555 302.162 373.962C300.259 387.452 298.259 397.477 290.235 408.631C294.43 408.631 295.448 407.646 298.584 405.045C301.631 406.402 303.868 407.853 306.485 409.976C309.028 412.465 309.028 412.465 311.703 412.218C312.553 415.059 313.402 417.901 314.242 420.745C314.915 422.965 315.618 425.177 316.357 427.376C318.271 433.194 319.358 437.224 317.666 443.301C317.445 444.435 317.223 445.569 316.995 446.738C316.823 447.576 316.651 448.415 316.474 449.278C319.893 448.593 321.079 448.249 323.63 445.692C329.033 444.889 334.5 444.798 339.954 444.571C341.466 444.475 342.978 444.378 344.536 444.279C353.701 443.89 358.544 444.197 365.373 450.474C366.16 450.474 366.947 450.474 367.758 450.474C367.514 449.753 367.269 449.031 367.017 448.288C366.696 447.333 366.375 446.377 366.044 445.393C365.725 444.45 365.407 443.507 365.079 442.535C364.783 441.604 364.486 440.673 364.18 439.714C363.903 438.965 363.627 438.216 363.342 437.445C362.326 430.238 366.647 421.579 369.845 415.281C373.455 411.161 377.232 407.663 382.07 405.045C385.424 405.194 385.424 405.194 388.033 406.24C389.214 406.24 390.395 406.24 391.611 406.24C391.222 405.571 390.833 404.903 390.433 404.213C384.987 394.197 381.661 383.071 382.07 371.571C381.378 371.353 380.686 371.136 379.974 370.912C365.208 366.15 365.208 366.15 361.944 360.587C361.501 359.477 361.058 358.368 360.602 357.224C360.209 357.224 359.815 357.224 359.409 357.224C359.016 359.197 358.622 361.17 358.217 363.202C355.965 364.073 353.701 364.914 351.434 365.742C349.545 366.45 349.545 366.45 347.618 367.171C343.327 368.11 341.771 367.581 337.941 365.593C336.023 364.853 336.023 364.853 334.065 364.099C330.785 362.007 330.785 362.007 329.742 358.196C329.693 357.086 329.644 355.977 329.593 354.833C328.806 354.833 328.019 354.833 327.207 354.833Z" fill="#B9975B"/>
<path d="M346.29 403.849C351.23 406.501 356.609 409.411 360.602 413.413C361.475 422.509 358.693 429.913 355.831 438.519C346.386 438.519 336.94 438.519 327.207 438.519C319.585 420.183 319.585 420.183 321.244 413.413C327.98 407.032 336.985 402.495 346.29 403.849Z" fill="#B9975B"/>
<path d="M333.348 369.147C335.705 370.303 338.023 371.506 340.327 372.766C340.895 390.695 340.895 390.695 335.994 396.653C331.124 401.142 325.304 405.59 318.859 407.436C314.449 407.017 311.799 404.718 308.423 401.981C306.993 400.832 306.993 400.832 305.535 399.66C304.815 399.07 304.096 398.48 303.354 397.872C305.402 379.393 305.402 379.393 310.734 373.439C311.841 372.822 312.948 372.206 314.088 371.571C314.832 371.117 315.576 370.664 316.343 370.198C322.663 366.595 326.536 366.056 333.348 369.147Z" fill="#B9975B"/>
<path d="M374.914 376.353C378.82 380.268 378.846 385.373 379.685 390.699C380.091 392.918 380.091 392.918 380.505 395.182C379.527 399.817 378.579 400.412 374.84 403.102C366.258 408.033 366.258 408.033 360.602 407.436C356.299 404.595 352.535 401.28 348.675 397.872C347.888 397.477 347.101 397.083 346.29 396.676C346.29 389.18 346.29 381.685 346.29 373.962C358.112 368.037 364.213 368.598 374.914 376.353Z" fill="#B9975B"/>
<path d="M338.911 349.977C340.296 349.988 341.681 349.998 343.108 350.009C344.158 350.023 345.208 350.037 346.29 350.051C346.29 350.446 346.29 350.841 346.29 351.247C341.174 352.036 336.057 352.825 330.785 353.638C331.179 356.005 331.573 358.372 331.978 360.811C336.651 364.144 340.543 366.09 346.29 366.789C344.296 368.171 344.296 368.171 341.519 369.18C337.01 367.591 333.202 365.137 329.593 362.007C328.847 357.972 328.847 357.972 329.593 354.833C328.806 354.833 328.019 354.833 327.207 354.833C326.912 355.524 326.617 356.214 326.313 356.926C322.596 363.632 316.282 367.539 309.318 370.375C305.948 370.827 303.191 370.686 299.776 370.375C299.383 371.164 298.989 371.953 298.584 372.766C297.796 372.766 297.009 372.766 296.198 372.766C300.381 362.623 312.223 357.167 321.528 352.597C327.409 350.187 332.585 349.913 338.911 349.977Z" fill="#B9975B"/>
<path d="M360.602 357.224C361.389 357.224 362.176 357.225 362.987 357.225C363.209 358.137 363.43 359.049 363.658 359.989C366.129 364.62 368.859 365.074 373.721 366.789C374.509 365.21 375.296 363.632 376.107 362.007C381.666 366.283 385.337 370.505 389.226 376.353C388.833 377.142 388.439 377.931 388.033 378.744C386.853 377.166 385.672 375.587 384.455 373.962C384.062 376.723 383.668 379.485 383.263 382.33C381.331 379.255 380.825 377.935 381.325 374.26C381.694 372.929 381.694 372.929 382.07 371.571C380.914 371.497 379.758 371.423 378.567 371.346C372.71 370.484 367.642 368.041 362.987 364.398C361.124 360.437 361.124 360.437 360.602 357.224Z" fill="#B9975B"/>
<path d="M338.911 349.977C340.296 349.988 341.681 349.998 343.108 350.009C344.158 350.023 345.208 350.037 346.29 350.051C346.29 350.446 346.29 350.841 346.29 351.247C341.174 352.036 336.057 352.825 330.785 353.638C331.179 356.005 331.573 358.372 331.978 360.811C336.651 364.144 340.543 366.09 346.29 366.789C344.296 368.171 344.296 368.171 341.519 369.18C337.01 367.591 333.202 365.137 329.593 362.007C328.847 357.972 328.847 357.972 329.593 354.833C328.412 355.228 327.231 355.623 326.015 356.029C326.015 355.24 326.015 354.451 326.015 353.638C324.047 354.032 322.079 354.427 320.052 354.833C325.902 349.838 331.429 349.901 338.911 349.977Z" fill="#B9975B"/>
<path d="M385.275 371.197C387.968 373.896 388.83 375.038 389.226 378.744C387.652 377.166 386.077 375.587 384.455 373.962C384.062 376.723 383.668 379.485 383.263 382.33C381.331 379.255 380.825 377.935 381.325 374.26C381.571 373.373 381.817 372.485 382.07 371.571C380.496 371.176 378.921 370.782 377.299 370.375C380.957 368.746 381.794 369.006 385.275 371.197Z" fill="#B9975B"/>
<path d="M300.969 365.593C303.289 365.883 303.289 365.883 305.889 366.639C306.753 366.883 307.617 367.126 308.507 367.377C309.168 367.577 309.829 367.778 310.51 367.984C310.117 368.773 309.723 369.562 309.318 370.375C306.169 370.375 303.02 370.375 299.776 370.375C299.383 371.164 298.989 371.953 298.584 372.766C297.796 372.766 297.009 372.766 296.198 372.766C297.572 369.816 298.641 367.927 300.969 365.593Z" fill="#B9975B"/>
<path d="M376.107 408.631C376.894 409.026 377.681 409.42 378.492 409.827C376.33 412.815 376.33 412.815 373.721 415.804C372.541 415.804 371.36 415.804 370.143 415.804C371.777 412.025 372.516 411.031 376.107 408.631Z" fill="#B9975B"/>
<path d="M181.215 97.0454C183.568 97.0229 183.568 97.0229 185.968 97C187.672 97.0147 189.376 97.0307 191.081 97.048C192.841 97.047 194.601 97.0441 196.361 97.0393C200.048 97.0359 203.734 97.0534 207.42 97.0863C212.124 97.1269 216.827 97.1199 221.531 97.0974C225.167 97.0847 228.802 97.0955 232.438 97.1134C234.171 97.1196 235.904 97.1191 237.637 97.1116C240.072 97.105 242.504 97.1296 244.938 97.1622C246.319 97.1696 247.699 97.177 249.121 97.1846C259.104 98.668 265.313 104.412 272.166 111.442C273.047 112.327 273.929 113.212 274.838 114.124C277.733 117.036 280.611 119.963 283.489 122.891C285.51 124.93 287.533 126.967 289.556 129.002C294.873 134.356 300.175 139.724 305.474 145.095C313.95 153.682 322.449 162.247 330.946 170.814C333.901 173.797 336.852 176.786 339.801 179.775C341.626 181.621 343.451 183.466 345.277 185.311C346.491 186.546 346.491 186.546 347.73 187.806C352.376 192.495 357.157 196.942 362.165 201.242C368.888 207.122 375.237 213.986 376.605 223.038C377.238 232.588 377.238 232.588 374.501 236.217C373.817 236.974 373.133 237.731 372.428 238.511C371.671 239.353 370.914 240.196 370.133 241.064C369.35 241.918 368.566 242.772 367.758 243.651C367.043 244.434 366.327 245.216 365.59 246.022C363.368 248.431 361.129 250.823 358.883 253.21C358.058 254.088 357.232 254.965 356.382 255.87C347.634 265.133 338.673 274.176 329.667 283.187C327.926 284.934 326.184 286.681 324.443 288.427C320.837 292.044 317.229 295.658 313.619 299.27C309.015 303.879 304.416 308.493 299.818 313.109C296.241 316.699 292.661 320.286 289.081 323.872C287.383 325.572 285.687 327.274 283.991 328.976C269.011 344.012 269.011 344.012 261.617 350.311C256.46 354.907 251.661 359.898 246.802 364.806C244.757 366.871 242.709 368.932 240.66 370.992C236.31 375.365 231.964 379.744 227.62 384.123C222.579 389.204 217.537 394.283 212.489 399.357C210.486 401.373 208.487 403.391 206.488 405.41C184.452 427.611 184.452 427.611 171.863 429.553C167.637 428.782 165.634 427.194 162.62 424.173C161.361 420.386 161.261 417.667 161.235 413.689C161.223 412.273 161.212 410.856 161.2 409.397C161.195 407.865 161.19 406.333 161.185 404.755C161.178 403.182 161.171 401.609 161.164 399.989C161.152 396.658 161.145 393.328 161.141 389.998C161.134 385.738 161.105 381.478 161.071 377.218C161.044 373.147 161.041 369.076 161.036 365.005C161.021 363.478 161.006 361.951 160.991 360.378C160.995 358.954 160.998 357.529 161.002 356.062C160.998 354.812 160.993 353.562 160.989 352.274C161.81 345.866 165.562 342.047 170.074 337.723C173.386 334.538 176.489 331.278 179.471 327.785C184.936 321.462 190.894 315.649 196.834 309.778C199.053 307.584 201.269 305.388 203.482 303.189C204.454 302.229 205.425 301.269 206.425 300.281C209.147 297.543 209.147 297.543 211.276 294.625C213.484 291.975 215.567 289.945 218.165 287.717C224.562 282.226 230.444 276.238 236.379 270.256C237.595 269.035 238.811 267.814 240.028 266.593C243.199 263.41 246.366 260.223 249.533 257.036C252.777 253.772 256.025 250.511 259.272 247.25C265.621 240.873 271.966 234.493 278.308 228.11C276.375 223.225 272.881 219.967 269.216 216.352C268.188 215.325 268.188 215.325 267.14 214.277C264.875 212.014 262.603 209.76 260.33 207.506C258.748 205.928 257.167 204.35 255.587 202.771C251.421 198.611 247.248 194.457 243.073 190.306C236.412 183.68 229.758 177.046 223.108 170.408C220.794 168.101 218.477 165.798 216.158 163.495C203.412 150.806 203.412 150.806 197.693 143.992C194.429 140.183 190.844 136.679 187.293 133.142C186.554 132.397 185.816 131.652 185.054 130.884C184.346 130.176 183.638 129.468 182.909 128.738C182.275 128.104 181.641 127.47 180.988 126.817C179.324 125.166 176.627 122.506 174.845 120.963C174.845 120.174 177.528 121.71 176.932 121.71C175.899 121.34 175.899 121.34 174.845 120.963C171.565 118.123 169.475 116.102 167.39 112.146C166.72 107.887 166.72 107.887 167.39 103.777C171.674 98.3664 174.381 97.0511 181.215 97.0454Z" fill="#B9975B"/>
<defs>
<linearGradient id="paint0_linear_163_48" x1="280" y1="560" x2="280" y2="-8.68924e-06" gradientUnits="userSpaceOnUse">
<stop stop-color="#2F6CB0"/>
<stop offset="1" stop-color="#245281"/>
</linearGradient>
</defs>
</svg>
