<svg width="560" height="560" viewBox="0 0 560 560" fill="none" xmlns="http://www.w3.org/2000/svg">
<rect width="560" height="560" fill="url(#paint0_linear_163_48)"/>
<path d="M361.781 349.499C370.83 356.646 376.402 367.174 378.915 378.316C380.025 391.896 379 404.925 370.324 416.003C368 418.735 365.86 421.095 362.848 423.612C362.848 422.927 362.848 424.276 362.848 423.612C360.655 424.752 356.449 427.896 354.249 429.022C353.638 429.341 353.026 429.66 352.396 429.989C345.311 433.597 338.814 435.057 330.902 434.998C330.104 434.993 329.305 434.987 328.482 434.981C317.957 434.764 310.235 431.609 301.593 425.625C300.889 425.142 300.184 424.659 299.459 424.162C291.037 417.632 285.249 406.909 283.518 396.434C283.246 393.637 283.182 390.876 283.204 388.067C283.209 387.322 283.214 386.576 283.219 385.808C283.476 373.647 287.6 362.907 295.783 353.844C315.306 335.345 340.291 334.255 361.781 349.499ZM319.668 343.086C319.192 343.958 318.715 344.83 318.224 345.728C314.798 351.144 308.18 354.307 302.099 355.766C299.898 356.046 299.898 356.046 296.572 356.171C296.572 356.836 296.572 357.5 296.572 358.185C297.235 358.517 297.897 358.849 298.58 359.191C296.978 370.55 295.294 378.99 288.538 388.382C292.07 388.382 292.928 387.552 295.568 385.362C298.134 386.505 300.017 387.726 302.22 389.514C304.362 391.609 304.362 391.609 306.614 391.401C307.33 393.794 308.044 396.186 308.751 398.581C309.318 400.451 309.91 402.313 310.532 404.164C312.144 409.063 313.059 412.455 311.635 417.572C311.448 418.527 311.262 419.482 311.07 420.466C310.925 421.172 310.78 421.878 310.63 422.605C313.51 422.028 314.508 421.738 316.655 419.585C321.205 418.909 325.808 418.833 330.4 418.642C331.673 418.561 332.946 418.479 334.258 418.396C341.974 418.068 346.053 418.327 351.802 423.612C352.464 423.612 353.127 423.612 353.81 423.612C353.604 423.004 353.398 422.397 353.186 421.771C352.916 420.967 352.645 420.162 352.367 419.334C352.099 418.54 351.831 417.745 351.555 416.927C351.305 416.144 351.055 415.36 350.798 414.552C350.565 413.922 350.332 413.291 350.091 412.642C349.236 406.574 352.875 399.283 355.567 393.981C358.606 390.511 361.787 387.566 365.86 385.362C368.684 385.488 368.684 385.488 370.881 386.368C371.875 386.368 372.869 386.368 373.894 386.368C373.566 385.805 373.239 385.242 372.901 384.662C368.316 376.229 365.516 366.861 365.86 357.178C365.278 356.995 364.695 356.812 364.095 356.624C351.663 352.614 351.663 352.614 348.915 347.93C348.542 346.996 348.169 346.062 347.785 345.099C347.454 345.099 347.122 345.099 346.781 345.099C346.449 346.76 346.118 348.421 345.777 350.132C343.881 350.865 341.975 351.574 340.065 352.271C338.475 352.866 338.475 352.866 336.853 353.474C333.24 354.265 331.93 353.819 328.706 352.145C327.09 351.522 327.09 351.522 325.442 350.887C322.681 349.125 322.681 349.125 321.802 345.917C321.76 344.983 321.719 344.049 321.676 343.086C321.014 343.086 320.351 343.086 319.668 343.086Z" fill="#B9975B"/>
<path d="M335.735 384.355C339.894 386.588 344.423 389.038 347.785 392.408C348.52 400.067 346.178 406.3 343.768 413.546C335.815 413.546 327.862 413.546 319.668 413.546C313.251 398.107 313.251 398.107 314.647 392.408C320.318 387.035 327.9 383.215 335.735 384.355Z" fill="#B9975B"/>
<path d="M324.838 355.137C326.823 356.111 328.775 357.124 330.714 358.185C331.192 373.28 331.192 373.28 327.066 378.296C322.966 382.076 318.066 385.821 312.639 387.375C308.926 387.022 306.694 385.087 303.852 382.783C302.648 381.815 302.648 381.815 301.42 380.828C300.814 380.331 300.209 379.835 299.584 379.322C301.309 363.764 301.309 363.764 305.798 358.751C306.73 358.232 307.662 357.713 308.622 357.178C309.249 356.796 309.875 356.415 310.521 356.022C315.842 352.989 319.103 352.535 324.838 355.137Z" fill="#B9975B"/>
<path d="M359.835 361.204C363.124 364.501 363.146 368.799 363.852 373.283C364.194 375.152 364.194 375.152 364.542 377.058C363.719 380.96 362.921 381.461 359.772 383.726C352.547 387.878 352.547 387.878 347.785 387.375C344.162 384.983 340.992 382.192 337.743 379.322C337.08 378.99 336.418 378.658 335.735 378.316C335.735 372.005 335.735 365.694 335.735 359.191C345.688 354.203 350.825 354.675 359.835 361.204Z" fill="#B9975B"/>
<path d="M329.521 338.997C330.688 339.006 331.854 339.015 333.056 339.024C333.94 339.036 334.824 339.048 335.735 339.06C335.735 339.392 335.735 339.724 335.735 340.066C331.427 340.731 327.119 341.395 322.681 342.079C323.012 344.072 323.343 346.065 323.685 348.119C327.619 350.925 330.896 352.564 335.735 353.152C334.056 354.316 334.056 354.316 331.718 355.165C327.921 353.827 324.715 351.761 321.676 349.125C321.049 345.728 321.049 345.728 321.676 343.086C321.014 343.086 320.351 343.086 319.668 343.086C319.419 343.667 319.171 344.249 318.915 344.847C315.786 350.494 310.469 353.784 304.605 356.171C301.768 356.552 299.447 356.433 296.572 356.171C296.24 356.836 295.909 357.5 295.568 358.185C294.905 358.185 294.242 358.185 293.559 358.185C297.081 349.645 307.052 345.051 314.886 341.203C319.838 339.174 324.195 338.943 329.521 338.997Z" fill="#B9975B"/>
<path d="M347.785 345.099C348.448 345.099 349.111 345.099 349.793 345.099C349.98 345.867 350.166 346.635 350.358 347.427C352.439 351.326 354.737 351.708 358.831 353.152C359.494 351.823 360.156 350.494 360.839 349.125C365.52 352.726 368.611 356.281 371.885 361.204C371.554 361.869 371.223 362.533 370.881 363.217C369.887 361.889 368.893 360.56 367.869 359.191C367.537 361.516 367.206 363.841 366.864 366.237C365.238 363.648 364.812 362.536 365.233 359.443C365.543 358.322 365.543 358.322 365.86 357.178C364.887 357.116 363.913 357.053 362.91 356.989C357.98 356.263 353.712 354.206 349.793 351.139C348.224 347.804 348.224 347.804 347.785 345.099Z" fill="#B9975B"/>
<path d="M329.521 338.997C330.688 339.006 331.854 339.015 333.056 339.024C333.94 339.036 334.824 339.048 335.735 339.06C335.735 339.392 335.735 339.724 335.735 340.066C331.427 340.731 327.119 341.395 322.681 342.079C323.012 344.072 323.343 346.065 323.685 348.119C327.619 350.925 330.896 352.564 335.735 353.152C334.056 354.316 334.056 354.316 331.718 355.165C327.921 353.827 324.715 351.761 321.676 349.125C321.049 345.728 321.049 345.728 321.676 343.086C320.682 343.418 319.688 343.75 318.664 344.093C318.664 343.428 318.664 342.764 318.664 342.079C317.007 342.412 315.35 342.744 313.643 343.086C318.569 338.88 323.223 338.933 329.521 338.997Z" fill="#B9975B"/>
<path d="M368.559 356.863C370.826 359.136 371.552 360.097 371.885 363.217C370.56 361.889 369.234 360.56 367.869 359.191C367.537 361.516 367.206 363.841 366.864 366.237C365.238 363.648 364.812 362.536 365.233 359.443C365.44 358.695 365.647 357.948 365.86 357.178C364.535 356.846 363.209 356.514 361.843 356.171C364.923 354.8 365.628 355.018 368.559 356.863Z" fill="#B9975B"/>
<path d="M297.576 352.145C299.53 352.389 299.53 352.389 301.718 353.026C302.446 353.231 303.173 353.436 303.923 353.647C304.479 353.816 305.036 353.984 305.609 354.158C305.278 354.823 304.947 355.487 304.605 356.171C301.954 356.171 299.303 356.171 296.572 356.171C296.24 356.836 295.909 357.5 295.568 358.185C294.905 358.185 294.242 358.185 293.559 358.185C294.716 355.7 295.616 354.11 297.576 352.145Z" fill="#B9975B"/>
<path d="M360.839 388.382C361.502 388.714 362.165 389.046 362.848 389.388C361.028 391.905 361.028 391.905 358.831 394.421C357.837 394.421 356.843 394.421 355.818 394.421C357.194 391.239 357.816 390.402 360.839 388.382Z" fill="#B9975B"/>
<path d="M196.748 126.038C198.729 126.019 198.729 126.019 200.75 126C202.185 126.012 203.62 126.026 205.054 126.04C206.536 126.04 208.018 126.037 209.5 126.033C212.605 126.03 215.708 126.045 218.812 126.073C222.772 126.107 226.732 126.101 230.693 126.082C233.754 126.071 236.815 126.08 239.876 126.096C241.335 126.101 242.794 126.1 244.253 126.094C246.303 126.088 248.351 126.109 250.401 126.137C251.563 126.143 252.725 126.149 253.923 126.155C262.328 127.404 267.556 132.241 273.325 138.16C274.067 138.905 274.81 139.65 275.575 140.418C278.012 142.869 280.435 145.334 282.859 147.8C284.561 149.516 286.263 151.231 287.967 152.945C292.443 157.453 296.908 161.972 301.369 166.494C308.506 173.724 315.662 180.935 322.816 188.148C325.304 190.66 327.788 193.177 330.271 195.694C331.808 197.247 333.345 198.801 334.882 200.355C335.904 201.394 335.904 201.394 336.947 202.455C340.859 206.403 344.885 210.147 349.101 213.768C354.762 218.719 360.107 224.498 361.259 232.12C361.792 240.16 361.792 240.16 359.487 243.215C358.911 243.853 358.336 244.49 357.742 245.147C357.105 245.856 356.467 246.565 355.81 247.296C355.15 248.015 354.49 248.734 353.81 249.475C353.208 250.133 352.605 250.792 351.985 251.47C350.114 253.499 348.229 255.513 346.338 257.523C345.643 258.262 344.948 259.001 344.232 259.762C336.867 267.562 329.321 275.175 321.739 282.763C320.273 284.233 318.807 285.704 317.341 287.175C314.304 290.219 311.267 293.262 308.227 296.304C304.351 300.184 300.478 304.069 296.607 307.955C293.596 310.978 290.582 313.998 287.567 317.017C286.138 318.449 284.709 319.882 283.282 321.315C270.669 333.975 270.669 333.975 264.443 339.278C260.102 343.148 256.061 347.35 251.97 351.482C250.248 353.221 248.524 354.956 246.798 356.69C243.136 360.373 239.477 364.06 235.819 367.747C231.575 372.025 227.329 376.301 223.079 380.573C221.393 382.27 219.71 383.97 218.027 385.67C199.473 404.362 199.473 404.362 188.874 405.997C185.315 405.348 183.629 404.011 181.091 401.467C180.031 398.279 179.947 395.989 179.925 392.64C179.916 391.448 179.906 390.255 179.896 389.026C179.892 387.737 179.888 386.447 179.883 385.118C179.878 383.794 179.872 382.469 179.866 381.105C179.855 378.301 179.85 375.497 179.846 372.693C179.841 369.106 179.816 365.52 179.788 361.933C179.765 358.505 179.763 355.078 179.758 351.65C179.745 350.364 179.733 349.078 179.72 347.754C179.723 346.555 179.726 345.356 179.729 344.121C179.726 343.068 179.722 342.015 179.718 340.931C180.41 335.536 183.569 332.321 187.368 328.679C190.157 325.998 192.769 323.253 195.279 320.312C199.881 314.988 204.898 310.094 209.899 305.151C211.767 303.304 213.633 301.455 215.496 299.603C216.314 298.795 217.132 297.987 217.974 297.155C220.266 294.849 220.266 294.849 222.058 292.393C223.918 290.162 225.671 288.452 227.858 286.576C233.244 281.954 238.197 276.911 243.194 271.875C244.218 270.847 245.242 269.819 246.266 268.791C248.936 266.111 251.603 263.428 254.269 260.744C257.001 257.996 259.735 255.25 262.469 252.505C267.815 247.136 273.157 241.764 278.497 236.39C276.869 232.276 273.927 229.534 270.841 226.49C269.976 225.625 269.976 225.625 269.094 224.742C267.187 222.838 265.273 220.94 263.36 219.042C262.028 217.713 260.697 216.384 259.366 215.055C255.858 211.552 252.345 208.055 248.83 204.56C243.222 198.981 237.619 193.396 232.021 187.807C230.072 185.864 228.121 183.925 226.169 181.986C215.437 171.302 215.437 171.302 210.622 165.565C207.873 162.359 204.856 159.408 201.865 156.43C201.243 155.803 200.621 155.175 199.981 154.529C199.385 153.933 198.788 153.337 198.174 152.722C197.641 152.189 197.107 151.655 196.557 151.105C195.156 149.714 192.885 147.475 191.384 146.176C191.384 145.511 193.644 146.805 193.142 146.805C192.272 146.493 192.272 146.493 191.384 146.176C188.623 143.785 186.864 142.083 185.108 138.752C184.543 135.166 184.543 135.166 185.108 131.706C188.715 127.15 190.994 126.043 196.748 126.038Z" fill="#B9975B"/>
<defs>
<linearGradient id="paint0_linear_163_48" x1="280" y1="560" x2="280" y2="-8.68924e-06" gradientUnits="userSpaceOnUse">
<stop stop-color="#2F6CB0"/>
<stop offset="1" stop-color="#245281"/>
</linearGradient>
</defs>
</svg>
